<?xml version="1.0" encoding="utf-8"?>
<!-- Generator: Adobe Illustrator 24.0.3, SVG Export Plug-In . SVG Version: 6.00 Build 0)  -->
<svg version="1.1" id="Layer_1" xmlns="http://www.w3.org/2000/svg" xmlns:xlink="http://www.w3.org/1999/xlink" x="0px" y="0px"
	 viewBox="0 0 260 80" style="enable-background:new 0 0 260 80;" xml:space="preserve">
<style type="text/css">
	.st0{fill:#FFFFFF;}
	.st1{fill-rule:evenodd;clip-rule:evenodd;fill:#FFFFFF;}
</style>
<g>
	<g>
		<path class="st0" d="M76.66,38.41V37.5c0-0.28-0.23-0.51-0.51-0.51c-0.28,0-0.51,0.23-0.51,0.51v0.91c0,0.28,0.23,0.51,0.51,0.51
			C76.43,38.92,76.66,38.69,76.66,38.41z"/>
		<path class="st0" d="M91.51,29.73c-2.37-2.11-6.08-3.16-11.15-3.16h-7.27v4.82c1.56-1.85,3.47-1.92,3.47-1.92
			c-0.34,0.95-0.56,1.93-0.63,2.94c2.61-1.99,4.98-0.99,4.98-0.99c-1.63,1.56-2.55,3.81-2.9,4.78c0.46,0.74,0.73,1.58,0.8,2.45v0.04
			h4.69c2.64,0,4.77-0.5,4.77,2.14c0,2-1.23,5.24-2.98,6.68c-1.18-0.03-4.5-0.29-6.06-2.28c-0.17-0.24-0.51-0.29-0.74-0.12
			c-0.24,0.17-0.29,0.51-0.12,0.74c0.01,0.01,0.02,0.02,0.03,0.03c1.05,1.34,2.67,2.01,4.13,2.36h-5.89
			c-0.91,1.21-2.15,2.92-3.18,4.48h6.9c5.04,0,8.76-1.06,11.14-3.17c2.38-2.11,3.57-5.42,3.57-9.93
			C95.07,35.13,93.88,31.84,91.51,29.73z M90.73,38.97c-0.45,0.67-1.21,0.95-1.69,0.63c-0.49-0.33-0.51-1.13-0.07-1.81
			c0.45-0.67,1.21-0.95,1.69-0.63C91.15,37.49,91.19,38.3,90.73,38.97L90.73,38.97z"/>
	</g>
</g>
<g>
	<g>
		<path class="st1" d="M113.78,36.11h4.08l-7.95,13.88l-2.03-3.58L113.78,36.11z"/>
		<path class="st1" d="M119.46,36.11h4.08l-7.95,13.88l-2.03-3.58L119.46,36.11z"/>
		<path class="st1" d="M106.66,44.92l2.54-4.41l2.54-4.41h-10.18l2.54,4.41C104.11,40.52,106.66,44.92,106.66,44.92z"/>
	</g>
</g>
<g>
	<g>
		<path class="st1" d="M196.16,37.92h4.08l-7.95,13.88l-2.03-3.58L196.16,37.92z"/>
		<path class="st1" d="M201.85,37.92h4.08l-7.95,13.88l-2.03-3.58L201.85,37.92z"/>
		<path class="st1" d="M189.04,46.73l2.54-4.41l2.54-4.41h-10.18l2.54,4.41C186.5,42.33,189.04,46.73,189.04,46.73z"/>
	</g>
</g>
<g>
	<path class="st0" d="M150.23,36.21c0.05,0.06,0.06,0.14,0.04,0.21l-0.42,1.49c-0.03,0.1-0.13,0.17-0.23,0.17h-18.89l-0.48,1.28
		l11.71-0.04c0.08,0,0.15,0.04,0.2,0.1c0.05,0.06,0.06,0.14,0.04,0.22l-0.54,1.63c-0.03,0.1-0.12,0.17-0.23,0.17h-3.87l-0.34,1.03
		h3.59c0.13,0,0.24,0.11,0.24,0.24c0,0.03,0,0.06-0.01,0.08l-0.55,1.52c-0.03,0.1-0.13,0.16-0.23,0.16h-3.87l-0.37,1.11h3.69
		c0.13,0,0.24,0.11,0.24,0.24c0,0.03-0.01,0.06-0.02,0.09l-0.55,1.44c-0.04,0.09-0.13,0.16-0.23,0.16h-3.79l-0.34,1.03h3.72
		c0.13,0,0.24,0.11,0.24,0.24c0,0.03-0.01,0.07-0.02,0.1l-0.76,1.74c-0.04,0.09-0.13,0.14-0.22,0.14h-2.52
		c-0.13,0-0.24-0.11-0.24-0.24c0-0.13,0.11-0.24,0.24-0.24h2.36l0.55-1.26h-4.6c-0.09,0-0.17-0.03-0.22-0.1
		c-0.04-0.07-0.06-0.15-0.03-0.22l0.5-1.49c0.03-0.1,0.12-0.17,0.23-0.17h4.74l0.37-0.95h-4.62c-0.13,0.01-0.25-0.1-0.25-0.23
		c0-0.04,0.01-0.08,0.03-0.12l0.01-0.05l0.48-1.5c0.05-0.13,0.18-0.21,0.32-0.2h4.76l0.38-1.03h-4.56c-0.13,0-0.24-0.11-0.24-0.24
		c0-0.02,0-0.05,0.01-0.07l0.48-1.51c0.03-0.1,0.12-0.17,0.23-0.17h4.87l0.4-1.14l-12.6,0.03c-0.13,0-0.24-0.1-0.24-0.23
		c0-0.02,0-0.04,0.01-0.06h-0.02l0.14-0.38l0.45-1.41c0.03-0.1,0.13-0.16,0.23-0.16h19.85l0.29-1.01h-19.63
		c-0.13,0-0.24-0.11-0.24-0.24c0-0.03,0.01-0.06,0.02-0.09l0.67-1.77c0.03-0.1,0.13-0.16,0.23-0.16h14.77
		c0.13,0,0.24,0.11,0.24,0.24c0,0.13-0.11,0.24-0.24,0.24l0,0h-13.72l-0.47,1.28h-0.09h18.79C150.11,36.1,150.18,36.14,150.23,36.21
		z M150.65,34.46l-1.51-1.05c-0.06-0.04-0.14-0.05-0.21-0.03c-0.07,0.03-0.13,0.09-0.14,0.16l-0.46,1.77
		c-0.03,0.12,0.04,0.25,0.16,0.29c0.02,0.01,0.04,0.01,0.06,0.01c0.03,0,0.05,0,0.08,0l1.97-0.74c0.12-0.05,0.18-0.18,0.13-0.3
		C150.71,34.53,150.68,34.49,150.65,34.46L150.65,34.46z M146.25,34.83h0.94c0.14,0,0.24-0.11,0.24-0.24c0-0.13-0.11-0.24-0.24-0.24
		h-0.94c-0.14,0-0.24,0.11-0.24,0.24C146,34.72,146.11,34.83,146.25,34.83z M147.99,34.83c0.14,0,0.24-0.11,0.24-0.24
		c0-0.14-0.11-0.24-0.24-0.24c-0.14,0-0.24,0.11-0.24,0.24S147.85,34.83,147.99,34.83L147.99,34.83z M134.85,50.29h-0.94
		c-0.14,0-0.24,0.11-0.24,0.24c0,0.13,0.11,0.24,0.24,0.24h0.94c0.14,0,0.24-0.11,0.24-0.24C135.1,50.39,134.99,50.29,134.85,50.29
		C134.85,50.29,134.85,50.29,134.85,50.29z M133.11,50.29c-0.14,0-0.24,0.11-0.24,0.24c0,0.14,0.11,0.24,0.24,0.24
		c0.14,0,0.24-0.11,0.24-0.24C133.36,50.39,133.25,50.28,133.11,50.29C133.11,50.28,133.11,50.28,133.11,50.29L133.11,50.29z"/>
</g>
<g>
	<g>
		<path class="st0" d="M216.94,33.01l0.38,0.05l0.3,0.05l0.32,0.05l0.4,0.07l0.36,0.08l0.28,0.07h0.05
			c0.22,0.06,0.45,0.12,0.65,0.19h0.05l0.26,0.08l0.17,0.06c0.25,0.09,0.51,0.18,0.75,0.28l0.44,0.19c0.05,0.03,0.1,0.06,0.15,0.08
			c0.22,0.11,0.45,0.22,0.65,0.34l0.23,0.12c0.11,0.06,0.22,0.12,0.32,0.19h0.06l0.38,0.25l0.47,0.33c0.29,0.2,0.57,0.42,0.84,0.65
			l0.08,0.07l0.35,0.31c0.14,0.12,0.27,0.25,0.4,0.39c0.25,0.25,0.51,0.53,0.74,0.82c0.24,0.28,0.49,0.6,0.69,0.89
			c0.3,0.35,0.57,0.74,0.79,1.15c0.03,0.06,0.04,0.12,0.05,0.18c0,0,0.03,0.07,0.05,0.1c0.21,0.39,0.4,0.78,0.57,1.18l0.08,0.18
			l0.07,0.19c0.04,0.1,0.08,0.21,0.12,0.31v0.06c0.08,0.21,0.14,0.42,0.21,0.65c0,0.03,0,0.06,0,0.08c0.08,0.28,0.15,0.56,0.21,0.85
			c0,0.08,0.05,0.16,0.06,0.25v0.06l0.04,0.2l0.06,0.35v0.08c0,0.16,0.05,0.32,0.06,0.48c0,0.03,0,0.07,0,0.1v0.04h3.83v-2.29
			c0.07-0.89,0.03-1.78-0.12-2.66c-1.02-4.05-4.22-7.19-8.29-8.14C221.95,31.46,219.27,31.81,216.94,33.01z"/>
		<path class="st0" d="M228.51,45.22c-0.19-1.67-0.7-3.3-1.52-4.77h-3.68c-1.32-0.07-2.44,0.94-2.51,2.26s0.94,2.44,2.26,2.51
			c0.08,0,0.17,0,0.25,0H228.51z M210.96,42.84c0,2.69,0.98,5.28,2.75,7.3c0-0.02,0-0.04,0-0.06c0-0.05,0-0.1,0-0.15l-0.05-0.29
			c0-0.13,0-0.26-0.05-0.38c-0.05-0.12,0-0.16,0-0.23c0-0.02,0-0.03,0-0.05v-0.21c0-0.3-0.03-0.6-0.03-0.9v-0.23v-0.18
			c-0.02-0.04-0.03-0.09-0.04-0.14c-0.01-0.04-0.01-0.08,0-0.12v-0.46V46.6c0-0.15,0-0.31,0.05-0.47s0.03-0.21,0.05-0.3
			c0.01-0.1,0,0,0-0.05v-0.23c0.06-0.29,0.12-0.59,0.2-0.88c0.02-0.09,0.04-0.17,0.06-0.25c0.08-0.28,0.17-0.56,0.27-0.85
			c0.06-0.17,0.12-0.34,0.19-0.52c0.07-0.17,0.11-0.26,0.17-0.38l0.03-0.07l0.07-0.14c0.1-0.2,0.19-0.4,0.3-0.6
			c0.11-0.19,0.11-0.21,0.17-0.32c0.14-0.25,0.3-0.48,0.45-0.71l0.1-0.16v-0.03l0.4-0.45l0.32-0.4c0.01-0.02,0.03-0.04,0.05-0.05
			c0.13-0.16,0.24-0.28,0.35-0.4c0.68-1.01,1.64-1.79,2.76-2.27c0.38-0.16,0.78-0.28,1.19-0.37c1.1-0.22,2.24-0.14,3.3,0.22
			c-0.28-0.23-0.56-0.45-0.85-0.65c-2.15-1.6-4.75-2.5-7.43-2.56c-0.9,0.63-1.71,1.38-2.39,2.24
			C211.82,37.91,210.97,40.34,210.96,42.84z M228.73,49.25c-0.35-0.07-0.7-0.11-1.05-0.11h-4.42l0.24,0.15l0.41,0.26L224,49.6
			c0.1,0.06,0.23,0.15,0.36,0.24l-0.14,0.38l0.23-0.31l0.29,0.21l0.06,0.05l0.14,0.11l0.23,0.18l0.29,0.25l0.05,0.05l0.39,0.36
			c0.12,0.11,0.25,0.23,0.37,0.36l0.29,0.3c0.44,0.45,0.85,0.94,1.23,1.44c0.15,0.2,0.29,0.41,0.43,0.65l0.05,0.07h4.58
			C232.68,51.63,231,49.71,228.73,49.25z"/>
		<path class="st0" d="M217.58,47.3c-1.19-1.18-1.85-2.78-1.85-4.45c0-0.26,0.02-0.53,0.05-0.79l-0.08,0.14
			c-0.14,0.27-0.27,0.52-0.38,0.77c-0.06,0.13-0.11,0.24-0.16,0.36c-0.17,0.42-0.32,0.85-0.44,1.3c0,0.08-0.05,0.16-0.06,0.23
			c-0.07,0.28-0.14,0.55-0.18,0.82l-0.04,0.21v0.05l-0.04,0.27c0,0.17-0.04,0.32-0.05,0.47c-0.01,0.15,0,0.1,0,0.14v2.33
			c0,0.1,0,0.24,0.05,0.35l0.04,0.28c0,0.17,0.06,0.34,0.1,0.52c0.04,0.17,0.05,0.24,0.08,0.36c0.03,0.12,0,0.06,0,0.1
			c0,0.03,0.06,0.21,0.1,0.34v0.06c0.07,0.06,0.14,0.12,0.21,0.17c1.98,1.65,4.48,2.56,7.06,2.56h5.28l-0.12-0.2
			c-0.34-0.48-0.72-0.93-1.13-1.35c-0.08-0.09-0.16-0.17-0.24-0.25c-0.08-0.08-0.27-0.27-0.38-0.37l-0.37-0.34l-0.35-0.29
			c-0.07-0.06-0.14-0.12-0.21-0.17l-0.19-0.15c-0.08-0.06-0.17-0.14-0.27-0.2l-0.1-0.06c-0.26-0.19-0.53-0.37-0.8-0.53l-0.36-0.22
			l-0.14-0.08l-0.36-0.19c-0.17-0.1-0.3-0.16-0.44-0.23h-0.05l-0.2-0.1c-1.03-0.08-2.03-0.41-2.91-0.97
			C218.27,47.93,217.91,47.64,217.58,47.3z"/>
	</g>
</g>
<g>
	<g>
		<path class="st0" d="M244.65,41.9L244.65,41.9L244.65,41.9z"/>
		<path class="st0" d="M244.65,41.89L244.65,41.89l5.94,0l-10.07-9.59v20.98h4.13V41.89z"/>
		<path class="st0" d="M257,32.69h-4.13v11.4h-5.93L257,53.67V32.69z"/>
		<path class="st0" d="M252.87,44.08l-2.29-2.18h-5.94l2.3,2.19h5.93V44.08z"/>
	</g>
</g>
<g>
	<path class="st0" d="M38.69,11.57c1.93,7.5-9.16,14.13-9.16,14.13s4.19,2.08,8.92,0.39c0,0,0.96,11.66-21.21,8.52
		c0,0-15.27-3.31-14.19,11.93c0.42,5.87,5.48,7.59,10.69,9.49c0,4.85-0.15,8.8-0.15,8.8s0.6-3.86,2.17-8.04
		c4.04,1.57,7.83,3.55,9.22,8.04c0,0,5.51-11.57-4.31-14.58c-0.45-0.12-0.84-0.27-1.27-0.42c-2.56-0.9-4.52-1.9-5.93-2.92
		c-4.34-3.16-3.92-6.69-1.84-8.8c0.9,0.81,1.45,3.74,1.75,7.38c1.54,1.27,3.71,2.47,6.66,3.58c1.63-1.81,3.61-2.98,5.99-2.98
		c9.46,0,12.92,18.77,12.92,18.77s0.54-15.94,6.6-30.24C51.64,20.27,38.69,11.57,38.69,11.57z"/>
	<path class="st0" d="M45.47,37.41c-0.93,2.53-1.72,5.06-2.38,7.53c2.41,0.96,5.45,1.33,5.45,1.33c-3.1,3.28-3.4,8.31-3.4,8.31
		c2.53-5.39,7.59-9.28,7.59-9.28C46.97,42.77,45.74,38.83,45.47,37.41z"/>
</g>
<g transform="matrix(.69 0 0 .69 15.5 15.5)">
	<path class="st0" d="M210.07,50.45c0.62-2.7,2.14-5.1,4.3-6.82c0.25-0.19,0.3-0.55,0.11-0.8c-0.11-0.14-0.28-0.23-0.46-0.23h-3.38
		c0.33-1.38,1.86-2.3,3.95-2.3c0.23,0,0.45-0.14,0.53-0.36c1.15-2.89,2.77-4.81,6.93-4.81c0.21,0,0.4-0.11,0.5-0.3
		c1.88-3.39,3.66-4.78,4.14-4.61c0.01,0,0.84,0.37-0.04,4.79c-0.06,0.31,0.14,0.61,0.45,0.68c0.19,0.04,0.38-0.02,0.52-0.16
		c0.3-0.33,0.65-0.61,1.04-0.85c-0.18,1.3-0.66,2.54-1.38,3.63c-3.66,7.32-3.57,12.41-3.52,15.77c0.01,0.34,0.01,0.66,0.01,0.97
		C218.74,55.8,213.65,54.08,210.07,50.45z M224.93,54.86c0-0.25,0-0.51-0.01-0.78c-0.06-3.45-0.14-8.17,3.38-15.2
		c0.86-1.43,2.19-4.36,1.11-5.2c-0.41-0.27-0.95-0.25-1.35,0.05c0.39-2.73,0.08-4.19-0.95-4.57c-1.59-0.59-3.86,2.18-5.38,4.84
		c-4.63,0.12-6.43,2.62-7.52,5.17c-2.83,0.14-4.78,1.74-4.78,4.01c0,0.32,0.26,0.58,0.57,0.58h2.49c-1.56,1.6-2.72,3.55-3.35,5.69
		c-5.67-6.82-4.75-16.96,2.08-22.64s16.96-4.75,22.63,2.07c5.68,6.82,4.75,16.96-2.07,22.63C229.8,53.16,227.45,54.31,224.93,54.86z
		"/>
</g>
</svg>
