<?xml version="1.0" encoding="UTF-8"?>
<!DOCTYPE svg PUBLIC "-//W3C//DTD SVG 1.1//EN" "http://www.w3.org/Graphics/SVG/1.1/DTD/svg11.dtd">
<!-- Creator: CorelDRAW 2020 (64-Bit) -->
<svg xmlns="http://www.w3.org/2000/svg" xml:space="preserve" width="68.7492mm" height="68.7492mm" version="1.1" style="shape-rendering:geometricPrecision; text-rendering:geometricPrecision; image-rendering:optimizeQuality; fill-rule:evenodd; clip-rule:evenodd"
viewBox="0 0 6874.92 6874.92"
 xmlns:xlink="http://www.w3.org/1999/xlink"
 xmlns:xodm="http://www.corel.com/coreldraw/odm/2003">
 <defs>
  <style type="text/css">
   <![CDATA[
    .str1 {stroke:#FEFEFE;stroke-width:42.33;stroke-miterlimit:22.9256}
    .str0 {stroke:#D9E483;stroke-width:67.73;stroke-miterlimit:22.9256;stroke-dasharray:338.650000 203.190000 67.730000 203.190000}
    .fil1 {fill:none}
    .fil0 {fill:#FEFEFE}
    .fil7 {fill:#283C4A}
    .fil8 {fill:#344556}
    .fil5 {fill:#FFF000;fill-rule:nonzero}
    .fil2 {fill:#F08519;fill-rule:nonzero}
    .fil4 {fill:#ACCE22;fill-rule:nonzero}
    .fil3 {fill:#008FD7;fill-rule:nonzero}
    .fil6 {fill:#2F318B;fill-rule:nonzero}
   ]]>
  </style>
   <clipPath id="id0">
    <rect x="402.16" y="409" width="6080.39" height="6038.36"/>
   </clipPath>
   <clipPath id="id1">
    <path d="M2850.05 2731.56l1204.59 0c66.92,0 121.67,54.75 121.67,121.67l0 1204.59c0,66.92 -54.75,121.67 -121.67,121.67l-1204.59 0c-66.92,0 -121.67,-54.75 -121.67,-121.67l0 -1204.59c0,-66.92 54.75,-121.67 121.67,-121.67z"/>
   </clipPath>
    <clipPath id="id2">
     <path d="M2850.05 2731.56l1204.59 0c66.92,0 121.67,54.75 121.67,121.67l0 1204.59c0,66.92 -54.75,121.67 -121.67,121.67l-1204.59 0c-66.92,0 -121.67,-54.75 -121.67,-121.67l0 -1204.59c0,-66.92 54.75,-121.67 121.67,-121.67z"/>
    </clipPath>
    <clipPath id="id3">
     <path d="M2850.05 2731.56l1204.59 0c66.92,0 121.67,54.75 121.67,121.67l0 1204.59c0,66.92 -54.75,121.67 -121.67,121.67l-1204.59 0c-66.92,0 -121.67,-54.75 -121.67,-121.67l0 -1204.59c0,-66.92 54.75,-121.67 121.67,-121.67z"/>
    </clipPath>
 </defs>
 <g id="图层_x0020_1">
  <metadata id="CorelCorpID_0Corel-Layer"/>
  <rect class="fil0" x="-8.47" y="-16.95" width="6908.8" height="6874.93"/>
  <rect class="fil1 str0" x="245.51" y="262.47" width="6366.94" height="6349.99" rx="222.63" ry="320.72"/>
  <path class="fil2" d="M1701.17 4767.62l0 -564.73 218.3 0c94.96,0 165.94,28.08 213.08,84.39 47.13,56.3 70.69,121.35 70.69,195.29 0,84.39 -25.26,152.97 -75.92,205.89 -50.51,52.77 -116.27,79.16 -196.99,79.16l-229.16 0zm173.56 -129.54l45.16 0c28.65,0 52.92,-13.97 72.53,-41.91 19.76,-27.94 29.63,-65.9 29.63,-114.02 0,-41.2 -8.74,-76.76 -26.24,-106.68 -17.5,-29.77 -42.9,-44.73 -75.92,-44.73l-45.16 0 0 307.34z"/>
  <polygon id="1" class="fil3" points="2892.57,4346.83 2759.78,4767.62 2641.11,4767.62 2585.65,4539.44 2528.08,4767.62 2410.67,4767.62 2275.35,4346.83 2437.34,4346.83 2492.66,4552.42 2544.59,4346.83 2668.34,4346.83 2719.85,4551.58 2778.13,4346.83 "/>
  <path id="2" class="fil4" d="M3243.65 4346.83l0 106.68 -83.82 0 0 155.08c0,21.31 3.95,33.86 11.99,37.82 7.9,4.09 16.23,6.06 24.7,6.06 13.26,0 28.92,-2.25 47.13,-6.77l0 117.69c-32.46,6.21 -64.49,9.31 -95.82,9.31 -50.8,0 -88.05,-10.87 -111.9,-32.74 -23.71,-21.73 -35.7,-56.58 -35.7,-104.28l0.42 -49.25 0 -132.92 -62.65 0 0 -106.68 62.65 0 2.54 -137.17 156.64 -2.54 0 139.71 83.82 0zm1222.3 0l-132.79 420.79 -118.67 0 -55.46 -228.18 -57.57 228.18 -117.41 0 -135.32 -420.79 161.99 0 55.32 205.59 51.93 -205.59 123.75 0 51.51 204.75 58.28 -204.75 114.44 0zm1040.4 420.79l-165.1 0 0 -264.87c0,-21.87 -3.24,-35.7 -10.02,-41.77 -6.77,-6.06 -15.1,-9.17 -25.26,-9.17 -29.91,0 -44.87,21.03 -44.87,62.94l0 252.87 -165.1 0 0 -420.79 153.25 0 0 59.54c22.58,-45.29 62.93,-68.01 120.93,-68.01 30.62,0 56.3,5.92 77.47,17.64 21.03,11.71 36.13,26.81 45.16,45.44 9.03,18.62 13.54,50.94 13.54,96.94l0 269.24z"/>
  <path id="3" class="fil5" d="M3546.33 4776.09c-69.71,0 -125.02,-21.73 -166.09,-65.06 -41.06,-43.46 -61.66,-94.4 -61.66,-152.82 0,-62.79 21.45,-115.15 64.34,-157.06 42.76,-41.91 98.5,-62.79 167.22,-62.79 69.15,0 124.74,20.6 166.79,61.95 42.06,41.34 63.08,93.13 63.08,155.5 0,62.8 -21.31,115.15 -63.92,157.2 -42.62,42.05 -99.06,63.08 -169.76,63.08zm2.54 -99.91c25.4,0 41.06,-13.26 46.57,-39.93 5.64,-26.53 8.46,-54.33 8.46,-83.26 0,-39.51 -3.95,-67.88 -11.85,-85.23 -8.04,-17.36 -22.15,-26.11 -42.76,-26.11 -18.9,0 -32.73,9.03 -41.48,26.95 -8.75,17.93 -13.13,47.42 -13.13,88.48 0,48.26 4.52,80.15 13.55,95.68 9.03,15.66 22.58,23.42 40.64,23.42z"/>
  <path id="4" class="fil6" d="M4835.65 4616.07l153.25 10.3c-9.03,41.48 -32.31,76.76 -69.71,105.97 -37.25,29.21 -87.77,43.75 -151.41,43.75 -70.84,0 -127.28,-20.46 -169.48,-61.39 -42.19,-40.92 -63.21,-91.72 -63.21,-152.26 0,-62.93 20.74,-115.99 62.37,-159.17 41.63,-43.32 97.22,-64.91 166.65,-64.91 67.17,0 121.5,20.32 162.98,61.1 41.49,40.78 62.24,96.24 62.24,166.37 0,5.79 -0.15,13.83 -0.43,23.99l-281.09 0c0.56,26.67 5.22,46.43 14.11,59.41 8.75,12.84 25.54,19.33 50.38,19.33 35.98,0 57,-17.5 63.35,-52.49zm-11.85 -109.22c-0.28,-28.09 -5.93,-46.99 -16.93,-56.59 -11.01,-9.74 -24.7,-14.53 -41.07,-14.53 -38.66,0 -57.99,23.7 -57.99,71.12l115.99 0z"/>
  <g style="clip-path:url(#id0)">
   <image x="402.16" y="408.99" width="6080.39" height="6038.37" xlink:href="Backup_of_WeChat_QRCode_Images\Backup_of_WeChat_QRCode_ImgID1.png"/>
  </g>
  <circle class="fil7" cx="518.57" cy="538.27" r="63.5"/>
  <g>
  </g>
  <g style="clip-path:url(#id1)">
   <g>
   </g>
   <g style="clip-path:url(#id2)">
    <image x="2716.21" y="2720.41" width="1471.25" height="1471.25" xlink:href="Backup_of_WeChat_QRCode_Images\Backup_of_WeChat_QRCode_ImgID2.png"/>
   </g>
   <g style="clip-path:url(#id3)">
   </g>
  </g>
  <path class="fil1 str1" d="M2850.05 2731.56l1204.59 0c66.92,0 121.67,54.75 121.67,121.67l0 1204.59c0,66.92 -54.75,121.67 -121.67,121.67l-1204.59 0c-66.92,0 -121.67,-54.75 -121.67,-121.67l0 -1204.59c0,-66.92 54.75,-121.67 121.67,-121.67z"/>
  <circle class="fil7" cx="518.57" cy="699.78" r="63.5"/>
  <circle class="fil7" cx="518.57" cy="861.29" r="63.5"/>
  <circle class="fil7" cx="518.57" cy="1022.8" r="63.5"/>
  <circle class="fil7" cx="518.57" cy="1184.31" r="63.5"/>
  <circle class="fil7" cx="518.57" cy="1345.82" r="63.5"/>
  <circle class="fil7" cx="518.57" cy="1507.33" r="63.5"/>
  <circle class="fil7" cx="518.57" cy="1991.86" r="63.5"/>
  <circle class="fil7" cx="518.57" cy="2153.37" r="63.5"/>
  <circle class="fil7" cx="518.57" cy="2314.88" r="63.5"/>
  <circle class="fil7" cx="518.57" cy="2476.39" r="63.5"/>
  <circle class="fil7" cx="518.57" cy="2799.41" r="63.5"/>
  <circle class="fil7" cx="518.57" cy="3122.43" r="63.5"/>
  <circle class="fil7" cx="518.57" cy="3445.45" r="63.5"/>
  <circle class="fil7" cx="518.57" cy="3768.47" r="63.5"/>
  <circle class="fil7" cx="518.57" cy="3929.98" r="63.5"/>
  <circle class="fil7" cx="514.43" cy="4595.32" r="63.5"/>
  <circle class="fil7" cx="514.43" cy="5101.33" r="63.5"/>
  <circle class="fil7" cx="514.43" cy="5416.62" r="63.5"/>
  <circle class="fil7" cx="512.23" cy="5578.68" r="63.5"/>
  <circle class="fil7" cx="512.23" cy="5738.53" r="63.5"/>
  <circle class="fil7" cx="512.23" cy="5898.38" r="63.5"/>
  <circle class="fil7" cx="512.23" cy="6058.23" r="63.5"/>
  <circle class="fil7" cx="512.23" cy="6218.08" r="63.5"/>
  <circle class="fil7" cx="512.23" cy="6377.93" r="63.5"/>
  <circle class="fil7" cx="674.29" cy="538.27" r="63.5"/>
  <circle class="fil7" cx="674.29" cy="1507.33" r="63.5"/>
  <circle class="fil7" cx="674.29" cy="1991.86" r="63.5"/>
  <circle class="fil7" cx="674.29" cy="2314.88" r="63.5"/>
  <circle class="fil7" cx="674.29" cy="2637.9" r="63.5"/>
  <circle class="fil7" cx="674.29" cy="2799.41" r="63.5"/>
  <circle class="fil7" cx="674.29" cy="3122.43" r="63.5"/>
  <circle class="fil7" cx="674.29" cy="3283.94" r="63.5"/>
  <circle class="fil7" cx="674.29" cy="3445.45" r="63.5"/>
  <circle class="fil7" cx="674.29" cy="3606.96" r="63.5"/>
  <circle class="fil7" cx="674.29" cy="3768.47" r="63.5"/>
  <circle class="fil7" cx="674.29" cy="4253" r="63.5"/>
  <circle class="fil7" cx="674.29" cy="4414.51" r="63.5"/>
  <circle class="fil7" cx="670.15" cy="5101.33" r="63.5"/>
  <circle class="fil7" cx="670.15" cy="5416.62" r="63.5"/>
  <circle class="fil7" cx="667.95" cy="6377.93" r="63.5"/>
  <circle class="fil7" cx="830.01" cy="538.27" r="63.5"/>
  <circle class="fil7" cx="830.01" cy="1507.33" r="63.5"/>
  <circle class="fil7" cx="830.01" cy="2153.37" r="63.5"/>
  <circle class="fil7" cx="830.01" cy="2476.39" r="63.5"/>
  <circle class="fil7" cx="830.01" cy="2799.41" r="63.5"/>
  <circle class="fil7" cx="830.01" cy="2960.92" r="63.5"/>
  <circle class="fil7" cx="830.01" cy="3283.94" r="63.5"/>
  <circle class="fil7" cx="825.87" cy="4763.99" r="63.5"/>
  <circle class="fil7" cx="825.87" cy="4932.66" r="63.5"/>
  <circle class="fil7" cx="825.87" cy="5416.62" r="63.5"/>
  <circle class="fil7" cx="823.67" cy="6377.93" r="63.5"/>
  <circle class="fil7" cx="1005.29" cy="534.96" r="63.5"/>
  <circle class="fil7" cx="1005.29" cy="1504.02" r="63.5"/>
  <circle class="fil7" cx="1005.29" cy="1988.55" r="63.5"/>
  <circle class="fil7" cx="1005.29" cy="2150.06" r="63.5"/>
  <circle class="fil7" cx="1005.29" cy="2634.59" r="63.5"/>
  <circle class="fil7" cx="1005.29" cy="2796.1" r="63.5"/>
  <circle class="fil7" cx="1005.29" cy="2957.61" r="63.5"/>
  <circle class="fil7" cx="1005.29" cy="3280.63" r="63.5"/>
  <circle class="fil7" cx="1005.29" cy="3765.16" r="63.5"/>
  <circle class="fil7" cx="1005.29" cy="3926.67" r="63.5"/>
  <circle class="fil7" cx="1005.29" cy="4249.69" r="63.5"/>
  <circle class="fil7" cx="1001.15" cy="4929.35" r="63.5"/>
  <circle class="fil7" cx="1001.15" cy="5098.02" r="63.5"/>
  <circle class="fil7" cx="1001.15" cy="5413.31" r="63.5"/>
  <circle class="fil7" cx="998.95" cy="6374.62" r="63.5"/>
  <circle class="fil7" cx="1165.14" cy="534.96" r="63.5"/>
  <circle class="fil7" cx="1165.14" cy="1504.02" r="63.5"/>
  <circle class="fil7" cx="1165.14" cy="1827.04" r="63.5"/>
  <circle class="fil7" cx="1165.14" cy="1988.55" r="63.5"/>
  <circle class="fil7" cx="1165.14" cy="2957.61" r="63.5"/>
  <circle class="fil7" cx="1165.14" cy="3280.63" r="63.5"/>
  <circle class="fil7" cx="1165.14" cy="3442.14" r="63.5"/>
  <circle class="fil7" cx="1165.14" cy="3603.65" r="63.5"/>
  <circle class="fil7" cx="1165.14" cy="3765.16" r="63.5"/>
  <circle class="fil7" cx="1165.14" cy="3926.67" r="63.5"/>
  <circle class="fil7" cx="1165.14" cy="4249.69" r="63.5"/>
  <circle class="fil7" cx="1161" cy="4760.68" r="63.5"/>
  <circle class="fil7" cx="1161" cy="5413.31" r="63.5"/>
  <circle class="fil7" cx="1158.8" cy="6374.62" r="63.5"/>
  <circle class="fil7" cx="1324.99" cy="534.96" r="63.5"/>
  <circle class="fil7" cx="1324.99" cy="1504.02" r="63.5"/>
  <circle class="fil7" cx="1324.99" cy="1827.04" r="63.5"/>
  <circle class="fil7" cx="1324.99" cy="2150.06" r="63.5"/>
  <circle class="fil7" cx="1324.99" cy="2311.57" r="63.5"/>
  <circle class="fil7" cx="1324.99" cy="2473.08" r="63.5"/>
  <circle class="fil7" cx="1324.99" cy="2634.59" r="63.5"/>
  <circle class="fil7" cx="1324.99" cy="2796.1" r="63.5"/>
  <circle class="fil7" cx="1324.99" cy="3119.12" r="63.5"/>
  <circle class="fil7" cx="1324.99" cy="3280.63" r="63.5"/>
  <circle class="fil7" cx="1324.99" cy="3603.65" r="63.5"/>
  <circle class="fil7" cx="1324.99" cy="3765.16" r="63.5"/>
  <circle class="fil7" cx="1320.85" cy="4592.01" r="63.5"/>
  <circle class="fil7" cx="1320.85" cy="4760.68" r="63.5"/>
  <circle class="fil7" cx="1320.85" cy="5413.31" r="63.5"/>
  <circle class="fil7" cx="1318.65" cy="6374.62" r="63.5"/>
  <circle class="fil7" cx="1484.84" cy="534.96" r="63.5"/>
  <circle class="fil7" cx="1484.84" cy="696.47" r="63.5"/>
  <circle class="fil7" cx="1484.84" cy="857.98" r="63.5"/>
  <circle class="fil7" cx="1484.84" cy="1019.49" r="63.5"/>
  <circle class="fil7" cx="1484.84" cy="1181" r="63.5"/>
  <circle class="fil7" cx="1484.84" cy="1342.51" r="63.5"/>
  <circle class="fil7" cx="1484.84" cy="1504.02" r="63.5"/>
  <circle class="fil7" cx="1484.84" cy="1827.04" r="63.5"/>
  <circle class="fil7" cx="1484.84" cy="2150.06" r="63.5"/>
  <circle class="fil7" cx="1484.84" cy="2473.08" r="63.5"/>
  <circle class="fil7" cx="1484.84" cy="2796.1" r="63.5"/>
  <circle class="fil7" cx="1484.84" cy="3119.12" r="63.5"/>
  <circle class="fil7" cx="1484.84" cy="3442.14" r="63.5"/>
  <circle class="fil7" cx="1484.84" cy="3765.16" r="63.5"/>
  <circle class="fil7" cx="1484.84" cy="4088.18" r="63.5"/>
  <circle class="fil7" cx="1484.84" cy="4411.2" r="63.5"/>
  <circle class="fil7" cx="1480.7" cy="4760.68" r="63.5"/>
  <circle class="fil7" cx="1480.7" cy="5098.02" r="63.5"/>
  <circle class="fil7" cx="1480.7" cy="5413.31" r="63.5"/>
  <circle class="fil7" cx="1478.5" cy="5575.37" r="63.5"/>
  <circle class="fil7" cx="1478.5" cy="5735.22" r="63.5"/>
  <circle class="fil7" cx="1478.5" cy="5895.07" r="63.5"/>
  <circle class="fil7" cx="1478.5" cy="6054.92" r="63.5"/>
  <circle class="fil7" cx="1478.5" cy="6214.77" r="63.5"/>
  <circle class="fil7" cx="1478.5" cy="6374.62" r="63.5"/>
  <circle class="fil7" cx="1644.69" cy="1827.04" r="63.5"/>
  <circle class="fil7" cx="1644.69" cy="1988.55" r="63.5"/>
  <circle class="fil7" cx="1644.69" cy="2311.57" r="63.5"/>
  <circle class="fil7" cx="1644.69" cy="2473.08" r="63.5"/>
  <circle class="fil7" cx="1644.69" cy="2957.61" r="63.5"/>
  <circle class="fil7" cx="1644.69" cy="3119.12" r="63.5"/>
  <circle class="fil7" cx="1644.69" cy="3926.67" r="63.5"/>
  <circle class="fil7" cx="1644.69" cy="4088.18" r="63.5"/>
  <circle class="fil7" cx="1640.55" cy="4592.01" r="63.5"/>
  <circle class="fil7" cx="1640.55" cy="4760.68" r="63.5"/>
  <circle class="fil7" cx="1640.55" cy="5098.02" r="63.5"/>
  <circle class="fil7" cx="1804.54" cy="696.47" r="63.5"/>
  <circle class="fil7" cx="1804.54" cy="1342.51" r="63.5"/>
  <circle class="fil7" cx="1804.54" cy="1504.02" r="63.5"/>
  <circle class="fil7" cx="1804.54" cy="1665.53" r="63.5"/>
  <circle class="fil7" cx="1804.54" cy="1988.55" r="63.5"/>
  <circle class="fil7" cx="1804.54" cy="2473.08" r="63.5"/>
  <circle class="fil7" cx="1804.54" cy="2796.1" r="63.5"/>
  <circle class="fil7" cx="1804.54" cy="2957.61" r="63.5"/>
  <circle class="fil7" cx="1804.54" cy="3119.12" r="63.5"/>
  <circle class="fil7" cx="1804.54" cy="3280.63" r="63.5"/>
  <circle class="fil7" cx="1804.54" cy="4088.18" r="63.5"/>
  <circle class="fil7" cx="1804.54" cy="4249.69" r="63.5"/>
  <circle class="fil7" cx="1804.54" cy="4411.2" r="63.5"/>
  <circle class="fil7" cx="1800.4" cy="4929.35" r="63.5"/>
  <circle class="fil7" cx="1800.4" cy="5098.02" r="63.5"/>
  <circle class="fil7" cx="1802.6" cy="5251.25" r="63.5"/>
  <circle class="fil7" cx="1800.4" cy="5413.31" r="63.5"/>
  <circle class="fil7" cx="1798.2" cy="5575.37" r="63.5"/>
  <circle class="fil7" cx="1798.2" cy="5735.22" r="63.5"/>
  <circle class="fil7" cx="1975.41" cy="537.16" r="63.5"/>
  <circle class="fil7" cx="1975.41" cy="698.67" r="63.5"/>
  <circle class="fil7" cx="1975.41" cy="1021.69" r="63.5"/>
  <circle class="fil7" cx="1975.41" cy="1183.2" r="63.5"/>
  <circle class="fil7" cx="1975.41" cy="1990.75" r="63.5"/>
  <circle class="fil7" cx="1975.41" cy="2636.79" r="63.5"/>
  <circle class="fil7" cx="1975.41" cy="2798.3" r="63.5"/>
  <circle class="fil7" cx="1975.41" cy="3282.83" r="63.5"/>
  <circle class="fil7" cx="1975.41" cy="3605.85" r="63.5"/>
  <circle class="fil7" cx="1975.41" cy="4413.4" r="63.5"/>
  <circle class="fil7" cx="1971.27" cy="4931.55" r="63.5"/>
  <circle class="fil7" cx="1971.27" cy="5415.51" r="63.5"/>
  <circle class="fil7" cx="1969.07" cy="5897.27" r="63.5"/>
  <circle class="fil7" cx="1969.07" cy="6216.97" r="63.5"/>
  <circle class="fil7" cx="2135.27" cy="537.16" r="63.5"/>
  <circle class="fil7" cx="2135.27" cy="1021.69" r="63.5"/>
  <circle class="fil7" cx="2135.27" cy="1344.71" r="63.5"/>
  <circle class="fil7" cx="2135.27" cy="1506.22" r="63.5"/>
  <circle class="fil7" cx="2135.27" cy="1667.73" r="63.5"/>
  <circle class="fil7" cx="2135.27" cy="1990.75" r="63.5"/>
  <circle class="fil7" cx="2135.27" cy="2313.77" r="63.5"/>
  <circle class="fil7" cx="2135.27" cy="2636.79" r="63.5"/>
  <circle class="fil7" cx="2135.27" cy="2798.3" r="63.5"/>
  <circle class="fil7" cx="2135.27" cy="3605.85" r="63.5"/>
  <circle class="fil7" cx="2131.13" cy="4594.21" r="63.5"/>
  <circle class="fil7" cx="2131.13" cy="4762.88" r="63.5"/>
  <circle class="fil7" cx="2131.13" cy="4931.55" r="63.5"/>
  <circle class="fil7" cx="2133.33" cy="5253.45" r="63.5"/>
  <circle class="fil7" cx="2128.93" cy="6057.12" r="63.5"/>
  <circle class="fil7" cx="2295.13" cy="698.67" r="63.5"/>
  <circle class="fil7" cx="2295.13" cy="1021.69" r="63.5"/>
  <circle class="fil7" cx="2295.13" cy="1667.73" r="63.5"/>
  <circle class="fil7" cx="2295.13" cy="1990.75" r="63.5"/>
  <circle class="fil7" cx="2295.13" cy="2313.77" r="63.5"/>
  <circle class="fil7" cx="2295.13" cy="2636.79" r="63.5"/>
  <circle class="fil7" cx="2295.13" cy="2959.81" r="63.5"/>
  <circle class="fil7" cx="2295.13" cy="3121.32" r="63.5"/>
  <circle class="fil7" cx="2295.13" cy="3444.34" r="63.5"/>
  <circle class="fil7" cx="2295.13" cy="3767.36" r="63.5"/>
  <circle class="fil7" cx="2295.13" cy="3928.87" r="63.5"/>
  <circle class="fil7" cx="2295.13" cy="4090.38" r="63.5"/>
  <circle class="fil7" cx="2295.13" cy="4251.89" r="63.5"/>
  <circle class="fil7" cx="2295.13" cy="4413.4" r="63.5"/>
  <circle class="fil7" cx="2290.99" cy="4594.21" r="63.5"/>
  <circle class="fil7" cx="2290.99" cy="4931.55" r="63.5"/>
  <circle class="fil7" cx="2288.79" cy="5577.57" r="63.5"/>
  <circle class="fil7" cx="2288.79" cy="6057.12" r="63.5"/>
  <circle class="fil7" cx="2288.79" cy="6216.97" r="63.5"/>
  <circle class="fil7" cx="2288.79" cy="6376.82" r="63.5"/>
  <circle class="fil7" cx="2454.99" cy="698.67" r="63.5"/>
  <circle class="fil7" cx="2454.99" cy="1021.69" r="63.5"/>
  <circle class="fil7" cx="2454.99" cy="1506.22" r="63.5"/>
  <circle class="fil7" cx="2454.99" cy="1829.24" r="63.5"/>
  <circle class="fil7" cx="2454.99" cy="1990.75" r="63.5"/>
  <circle class="fil7" cx="2454.99" cy="2152.26" r="63.5"/>
  <circle class="fil7" cx="2454.99" cy="2313.77" r="63.5"/>
  <circle class="fil7" cx="2454.99" cy="2636.79" r="63.5"/>
  <circle class="fil7" cx="2454.99" cy="3282.83" r="63.5"/>
  <circle class="fil7" cx="2454.99" cy="3444.34" r="63.5"/>
  <circle class="fil7" cx="2454.99" cy="3605.85" r="63.5"/>
  <circle class="fil7" cx="2454.99" cy="3767.36" r="63.5"/>
  <circle class="fil7" cx="2450.85" cy="4762.88" r="63.5"/>
  <circle class="fil7" cx="2450.85" cy="4931.55" r="63.5"/>
  <circle class="fil7" cx="2453.05" cy="5253.45" r="63.5"/>
  <circle class="fil7" cx="2450.85" cy="5415.51" r="63.5"/>
  <circle class="fil7" cx="2448.65" cy="5577.57" r="63.5"/>
  <circle class="fil7" cx="2625.88" cy="537.16" r="63.5"/>
  <circle class="fil7" cx="2625.88" cy="860.18" r="63.5"/>
  <circle class="fil7" cx="2625.88" cy="1021.69" r="63.5"/>
  <circle class="fil7" cx="2625.88" cy="1183.2" r="63.5"/>
  <circle class="fil7" cx="2625.88" cy="1344.71" r="63.5"/>
  <circle class="fil7" cx="2625.88" cy="1829.24" r="63.5"/>
  <circle class="fil7" cx="2625.88" cy="1990.75" r="63.5"/>
  <circle class="fil7" cx="2625.88" cy="2475.28" r="63.5"/>
  <circle class="fil7" cx="2625.88" cy="2798.3" r="63.5"/>
  <circle class="fil7" cx="2625.88" cy="2959.81" r="63.5"/>
  <circle class="fil7" cx="2625.88" cy="3121.32" r="63.5"/>
  <circle class="fil7" cx="2625.88" cy="3605.85" r="63.5"/>
  <circle class="fil7" cx="2625.88" cy="3928.87" r="63.5"/>
  <circle class="fil7" cx="2625.88" cy="4090.38" r="63.5"/>
  <circle class="fil7" cx="2625.88" cy="4413.4" r="63.5"/>
  <circle class="fil7" cx="2621.74" cy="4931.55" r="63.5"/>
  <circle class="fil7" cx="2621.74" cy="5100.22" r="63.5"/>
  <circle class="fil7" cx="2621.74" cy="5415.51" r="63.5"/>
  <circle class="fil7" cx="2619.54" cy="6057.12" r="63.5"/>
  <circle class="fil7" cx="2619.54" cy="6216.97" r="63.5"/>
  <circle class="fil7" cx="2789.04" cy="537.16" r="63.5"/>
  <circle class="fil7" cx="2789.04" cy="698.67" r="63.5"/>
  <circle class="fil7" cx="2789.04" cy="1021.69" r="63.5"/>
  <circle class="fil7" cx="2789.04" cy="1344.71" r="63.5"/>
  <circle class="fil7" cx="2789.04" cy="1506.22" r="63.5"/>
  <circle class="fil7" cx="2789.04" cy="1990.75" r="63.5"/>
  <circle class="fil7" cx="2789.04" cy="2313.77" r="63.5"/>
  <circle class="fil7" cx="2789.04" cy="2636.79" r="63.5"/>
  <circle class="fil7" cx="2789.04" cy="4413.4" r="63.5"/>
  <circle class="fil7" cx="2784.9" cy="4931.55" r="63.5"/>
  <circle class="fil7" cx="2787.1" cy="5253.45" r="63.5"/>
  <circle class="fil7" cx="2784.9" cy="5415.51" r="63.5"/>
  <circle class="fil7" cx="2782.7" cy="5577.57" r="63.5"/>
  <circle class="fil7" cx="2782.7" cy="5737.42" r="63.5"/>
  <circle class="fil7" cx="2782.7" cy="5897.27" r="63.5"/>
  <circle class="fil7" cx="2782.7" cy="6376.82" r="63.5"/>
  <circle class="fil7" cx="2952.2" cy="537.16" r="63.5"/>
  <circle class="fil7" cx="2952.2" cy="860.18" r="63.5"/>
  <circle class="fil7" cx="2952.2" cy="1183.2" r="63.5"/>
  <circle class="fil7" cx="2952.2" cy="1667.73" r="63.5"/>
  <circle class="fil7" cx="2952.2" cy="1829.24" r="63.5"/>
  <circle class="fil7" cx="2952.2" cy="2313.77" r="63.5"/>
  <circle class="fil7" cx="2952.2" cy="2475.28" r="63.5"/>
  <circle class="fil7" cx="2952.2" cy="4251.89" r="63.5"/>
  <circle class="fil7" cx="2948.06" cy="4931.55" r="63.5"/>
  <circle class="fil7" cx="2948.06" cy="5415.51" r="63.5"/>
  <circle class="fil7" cx="2945.86" cy="6057.12" r="63.5"/>
  <circle class="fil7" cx="2945.86" cy="6376.82" r="63.5"/>
  <circle class="fil7" cx="3115.36" cy="1021.69" r="63.5"/>
  <circle class="fil7" cx="3115.36" cy="1183.2" r="63.5"/>
  <circle class="fil7" cx="3115.36" cy="1344.71" r="63.5"/>
  <circle class="fil7" cx="3115.36" cy="1506.22" r="63.5"/>
  <circle class="fil7" cx="3115.36" cy="1667.73" r="63.5"/>
  <circle class="fil7" cx="3115.36" cy="2313.77" r="63.5"/>
  <circle class="fil7" cx="3115.36" cy="2475.28" r="63.5"/>
  <circle class="fil7" cx="3111.22" cy="5100.22" r="63.5"/>
  <circle class="fil7" cx="3109.02" cy="5737.42" r="63.5"/>
  <circle class="fil7" cx="3278.52" cy="698.67" r="63.5"/>
  <circle class="fil7" cx="3278.52" cy="860.18" r="63.5"/>
  <circle class="fil7" cx="3278.52" cy="1667.73" r="63.5"/>
  <circle class="fil7" cx="3278.52" cy="1990.75" r="63.5"/>
  <circle class="fil7" cx="3278.52" cy="2152.26" r="63.5"/>
  <circle class="fil7" cx="3278.52" cy="2636.79" r="63.5"/>
  <circle class="fil7" cx="3278.52" cy="4413.4" r="63.5"/>
  <circle class="fil7" cx="3274.38" cy="4762.88" r="63.5"/>
  <circle class="fil7" cx="3276.58" cy="5253.45" r="63.5"/>
  <circle class="fil7" cx="3274.38" cy="5415.51" r="63.5"/>
  <circle class="fil7" cx="3272.18" cy="6057.12" r="63.5"/>
  <circle class="fil7" cx="3272.18" cy="6376.82" r="63.5"/>
  <circle class="fil7" cx="3441.68" cy="537.16" r="63.5"/>
  <circle class="fil7" cx="3441.68" cy="1183.2" r="63.5"/>
  <circle class="fil7" cx="3441.68" cy="1344.71" r="63.5"/>
  <circle class="fil7" cx="3441.68" cy="1506.22" r="63.5"/>
  <circle class="fil7" cx="3441.68" cy="1667.73" r="63.5"/>
  <circle class="fil7" cx="3441.68" cy="2152.26" r="63.5"/>
  <circle class="fil7" cx="3441.68" cy="2475.28" r="63.5"/>
  <circle class="fil7" cx="3441.68" cy="2636.79" r="63.5"/>
  <circle class="fil7" cx="3441.68" cy="4251.89" r="63.5"/>
  <circle class="fil7" cx="3437.54" cy="4594.21" r="63.5"/>
  <circle class="fil7" cx="3437.54" cy="4931.55" r="63.5"/>
  <circle class="fil7" cx="3439.74" cy="5253.45" r="63.5"/>
  <circle class="fil7" cx="3435.34" cy="5577.57" r="63.5"/>
  <circle class="fil7" cx="3435.34" cy="5897.27" r="63.5"/>
  <circle class="fil7" cx="3435.34" cy="6057.12" r="63.5"/>
  <circle class="fil7" cx="3435.34" cy="6376.82" r="63.5"/>
  <circle class="fil7" cx="3604.84" cy="537.16" r="63.5"/>
  <circle class="fil7" cx="3604.84" cy="860.18" r="63.5"/>
  <circle class="fil7" cx="3604.84" cy="1344.71" r="63.5"/>
  <circle class="fil7" cx="3604.84" cy="1667.73" r="63.5"/>
  <circle class="fil7" cx="3604.84" cy="1990.75" r="63.5"/>
  <circle class="fil7" cx="3604.84" cy="2152.26" r="63.5"/>
  <circle class="fil7" cx="3604.84" cy="2313.77" r="63.5"/>
  <circle class="fil7" cx="3604.84" cy="2475.28" r="63.5"/>
  <circle class="fil7" cx="3604.84" cy="4251.89" r="63.5"/>
  <circle class="fil7" cx="3604.84" cy="4413.4" r="63.5"/>
  <circle class="fil7" cx="3600.7" cy="4594.21" r="63.5"/>
  <circle class="fil7" cx="3600.7" cy="4762.88" r="63.5"/>
  <circle class="fil7" cx="3598.5" cy="5577.57" r="63.5"/>
  <circle class="fil7" cx="3598.5" cy="6057.12" r="63.5"/>
  <circle class="fil7" cx="3768" cy="537.16" r="63.5"/>
  <circle class="fil7" cx="3768" cy="860.18" r="63.5"/>
  <circle class="fil7" cx="3768" cy="1344.71" r="63.5"/>
  <circle class="fil7" cx="3768" cy="1506.22" r="63.5"/>
  <circle class="fil7" cx="3768" cy="1829.24" r="63.5"/>
  <circle class="fil7" cx="3768" cy="1990.75" r="63.5"/>
  <circle class="fil7" cx="3768" cy="2313.77" r="63.5"/>
  <circle class="fil7" cx="3768" cy="4251.89" r="63.5"/>
  <circle class="fil7" cx="3763.86" cy="4594.21" r="63.5"/>
  <circle class="fil7" cx="3763.86" cy="4762.88" r="63.5"/>
  <circle class="fil7" cx="3763.86" cy="4931.55" r="63.5"/>
  <circle class="fil7" cx="3763.86" cy="5415.51" r="63.5"/>
  <circle class="fil7" cx="3761.66" cy="5577.57" r="63.5"/>
  <circle class="fil7" cx="3761.66" cy="6057.12" r="63.5"/>
  <circle class="fil7" cx="3761.66" cy="6216.97" r="63.5"/>
  <circle class="fil7" cx="3761.66" cy="6376.82" r="63.5"/>
  <circle class="fil7" cx="3931.16" cy="698.67" r="63.5"/>
  <circle class="fil7" cx="3931.16" cy="860.18" r="63.5"/>
  <circle class="fil7" cx="3931.16" cy="1021.69" r="63.5"/>
  <circle class="fil7" cx="3931.16" cy="1344.71" r="63.5"/>
  <circle class="fil7" cx="3931.16" cy="1667.73" r="63.5"/>
  <circle class="fil7" cx="3931.16" cy="2475.28" r="63.5"/>
  <circle class="fil7" cx="3931.16" cy="2636.79" r="63.5"/>
  <circle class="fil7" cx="3931.16" cy="4413.4" r="63.5"/>
  <circle class="fil7" cx="3927.02" cy="4931.55" r="63.5"/>
  <circle class="fil7" cx="3927.02" cy="5100.22" r="63.5"/>
  <circle class="fil7" cx="3927.02" cy="5415.51" r="63.5"/>
  <circle class="fil7" cx="3924.82" cy="5577.57" r="63.5"/>
  <circle class="fil7" cx="3924.82" cy="5897.27" r="63.5"/>
  <circle class="fil7" cx="3924.82" cy="6216.97" r="63.5"/>
  <circle class="fil7" cx="4094.32" cy="537.16" r="63.5"/>
  <circle class="fil7" cx="4094.32" cy="1021.69" r="63.5"/>
  <circle class="fil7" cx="4094.32" cy="1183.2" r="63.5"/>
  <circle class="fil7" cx="4094.32" cy="1506.22" r="63.5"/>
  <circle class="fil7" cx="4094.32" cy="1667.73" r="63.5"/>
  <circle class="fil7" cx="4094.32" cy="1829.24" r="63.5"/>
  <circle class="fil7" cx="4094.32" cy="1990.75" r="63.5"/>
  <circle class="fil7" cx="4094.32" cy="2475.28" r="63.5"/>
  <circle class="fil7" cx="4090.18" cy="4762.88" r="63.5"/>
  <circle class="fil7" cx="4090.18" cy="5415.51" r="63.5"/>
  <circle class="fil7" cx="4087.98" cy="5577.57" r="63.5"/>
  <circle class="fil7" cx="4087.98" cy="5737.42" r="63.5"/>
  <circle class="fil7" cx="4087.98" cy="6057.12" r="63.5"/>
  <circle class="fil7" cx="4257.48" cy="698.67" r="63.5"/>
  <circle class="fil7" cx="4257.48" cy="860.18" r="63.5"/>
  <circle class="fil7" cx="4257.48" cy="1829.24" r="63.5"/>
  <circle class="fil7" cx="4257.48" cy="1990.75" r="63.5"/>
  <circle class="fil7" cx="4257.48" cy="2475.28" r="63.5"/>
  <circle class="fil7" cx="4257.48" cy="2798.3" r="63.5"/>
  <circle class="fil7" cx="4257.48" cy="2959.81" r="63.5"/>
  <circle class="fil7" cx="4257.48" cy="3282.83" r="63.5"/>
  <circle class="fil7" cx="4257.48" cy="3444.34" r="63.5"/>
  <circle class="fil7" cx="4257.48" cy="4413.4" r="63.5"/>
  <circle class="fil7" cx="4253.34" cy="4762.88" r="63.5"/>
  <circle class="fil7" cx="4253.34" cy="4931.55" r="63.5"/>
  <circle class="fil7" cx="4253.34" cy="5415.51" r="63.5"/>
  <circle class="fil7" cx="4251.14" cy="6057.12" r="63.5"/>
  <circle class="fil7" cx="4420.64" cy="698.67" r="63.5"/>
  <circle class="fil7" cx="4420.64" cy="1183.2" r="63.5"/>
  <circle class="fil7" cx="4420.64" cy="1344.71" r="63.5"/>
  <circle class="fil7" cx="4420.64" cy="1506.22" r="63.5"/>
  <circle class="fil7" cx="4420.64" cy="1667.73" r="63.5"/>
  <circle class="fil7" cx="4420.64" cy="2152.26" r="63.5"/>
  <circle class="fil7" cx="4420.64" cy="2313.77" r="63.5"/>
  <circle class="fil7" cx="4420.64" cy="2475.28" r="63.5"/>
  <circle class="fil7" cx="4420.64" cy="2636.79" r="63.5"/>
  <circle class="fil7" cx="4420.64" cy="3121.32" r="63.5"/>
  <circle class="fil7" cx="4420.64" cy="3282.83" r="63.5"/>
  <circle class="fil7" cx="4420.64" cy="3444.34" r="63.5"/>
  <circle class="fil7" cx="4420.64" cy="3605.85" r="63.5"/>
  <circle class="fil7" cx="4420.64" cy="3928.87" r="63.5"/>
  <circle class="fil7" cx="4420.64" cy="4251.89" r="63.5"/>
  <circle class="fil7" cx="4420.64" cy="4413.4" r="63.5"/>
  <circle class="fil7" cx="4416.5" cy="4594.21" r="63.5"/>
  <circle class="fil7" cx="4416.5" cy="5100.22" r="63.5"/>
  <circle class="fil7" cx="4416.5" cy="5415.51" r="63.5"/>
  <circle class="fil7" cx="4414.3" cy="5737.42" r="63.5"/>
  <circle class="fil7" cx="4414.3" cy="6216.97" r="63.5"/>
  <circle class="fil7" cx="4577.19" cy="537.16" r="63.5"/>
  <circle class="fil7" cx="4577.19" cy="1021.69" r="63.5"/>
  <circle class="fil7" cx="4577.19" cy="1183.2" r="63.5"/>
  <circle class="fil7" cx="4577.19" cy="1344.71" r="63.5"/>
  <circle class="fil7" cx="4577.19" cy="1829.24" r="63.5"/>
  <circle class="fil7" cx="4577.19" cy="1990.75" r="63.5"/>
  <circle class="fil7" cx="4577.19" cy="2152.26" r="63.5"/>
  <circle class="fil7" cx="4577.19" cy="2636.79" r="63.5"/>
  <circle class="fil7" cx="4577.19" cy="3121.32" r="63.5"/>
  <circle class="fil7" cx="4577.19" cy="3282.83" r="63.5"/>
  <circle class="fil7" cx="4577.19" cy="3605.85" r="63.5"/>
  <circle class="fil7" cx="4577.19" cy="3767.36" r="63.5"/>
  <circle class="fil7" cx="4577.19" cy="3928.87" r="63.5"/>
  <circle class="fil7" cx="4577.19" cy="4090.38" r="63.5"/>
  <circle class="fil7" cx="4577.19" cy="4251.89" r="63.5"/>
  <circle class="fil7" cx="4577.19" cy="4413.4" r="63.5"/>
  <circle class="fil7" cx="4573.05" cy="4594.21" r="63.5"/>
  <circle class="fil7" cx="4573.05" cy="4762.88" r="63.5"/>
  <circle class="fil7" cx="4575.25" cy="5253.45" r="63.5"/>
  <circle class="fil7" cx="4570.85" cy="5737.42" r="63.5"/>
  <circle class="fil7" cx="4570.85" cy="5897.27" r="63.5"/>
  <circle class="fil7" cx="4570.85" cy="6057.12" r="63.5"/>
  <circle class="fil7" cx="4739.25" cy="698.67" r="63.5"/>
  <circle class="fil7" cx="4739.25" cy="860.18" r="63.5"/>
  <circle class="fil7" cx="4739.25" cy="1506.22" r="63.5"/>
  <circle class="fil7" cx="4739.25" cy="1990.75" r="63.5"/>
  <circle class="fil7" cx="4739.25" cy="2152.26" r="63.5"/>
  <circle class="fil7" cx="4739.25" cy="2636.79" r="63.5"/>
  <circle class="fil7" cx="4739.25" cy="2798.3" r="63.5"/>
  <circle class="fil7" cx="4739.25" cy="2959.81" r="63.5"/>
  <circle class="fil7" cx="4739.25" cy="3282.83" r="63.5"/>
  <circle class="fil7" cx="4739.25" cy="3444.34" r="63.5"/>
  <circle class="fil7" cx="4739.25" cy="4090.38" r="63.5"/>
  <circle class="fil7" cx="4735.11" cy="4594.21" r="63.5"/>
  <circle class="fil7" cx="4735.11" cy="4931.55" r="63.5"/>
  <circle class="fil7" cx="4735.11" cy="5100.22" r="63.5"/>
  <circle class="fil7" cx="4737.31" cy="5253.45" r="63.5"/>
  <circle class="fil7" cx="4735.11" cy="5415.51" r="63.5"/>
  <circle class="fil7" cx="4732.91" cy="5577.57" r="63.5"/>
  <circle class="fil7" cx="4732.91" cy="5737.42" r="63.5"/>
  <circle class="fil7" cx="4732.91" cy="5897.27" r="63.5"/>
  <circle class="fil7" cx="4732.91" cy="6216.97" r="63.5"/>
  <circle class="fil7" cx="4732.91" cy="6376.82" r="63.5"/>
  <circle class="fil7" cx="4901.31" cy="860.18" r="63.5"/>
  <circle class="fil7" cx="4901.31" cy="1021.69" r="63.5"/>
  <circle class="fil7" cx="4901.31" cy="1183.2" r="63.5"/>
  <circle class="fil7" cx="4901.31" cy="1344.71" r="63.5"/>
  <circle class="fil7" cx="4901.31" cy="1990.75" r="63.5"/>
  <circle class="fil7" cx="4901.31" cy="2636.79" r="63.5"/>
  <circle class="fil7" cx="4901.31" cy="2959.81" r="63.5"/>
  <circle class="fil7" cx="4901.31" cy="3444.34" r="63.5"/>
  <circle class="fil7" cx="4901.31" cy="3928.87" r="63.5"/>
  <circle class="fil7" cx="4897.17" cy="4594.21" r="63.5"/>
  <circle class="fil7" cx="4897.17" cy="4931.55" r="63.5"/>
  <circle class="fil7" cx="4899.37" cy="5253.45" r="63.5"/>
  <circle class="fil7" cx="4897.17" cy="5415.51" r="63.5"/>
  <circle class="fil7" cx="4894.97" cy="5577.57" r="63.5"/>
  <circle class="fil7" cx="4894.97" cy="5737.42" r="63.5"/>
  <circle class="fil7" cx="4894.97" cy="6376.82" r="63.5"/>
  <circle class="fil7" cx="5063.37" cy="1183.2" r="63.5"/>
  <circle class="fil7" cx="5063.37" cy="1506.22" r="63.5"/>
  <circle class="fil7" cx="5063.37" cy="1667.73" r="63.5"/>
  <circle class="fil7" cx="5063.37" cy="1829.24" r="63.5"/>
  <circle class="fil7" cx="5063.37" cy="2152.26" r="63.5"/>
  <circle class="fil7" cx="5063.37" cy="2475.28" r="63.5"/>
  <circle class="fil7" cx="5063.37" cy="2636.79" r="63.5"/>
  <circle class="fil7" cx="5063.37" cy="3121.32" r="63.5"/>
  <circle class="fil7" cx="5063.37" cy="3605.85" r="63.5"/>
  <circle class="fil7" cx="5063.37" cy="3767.36" r="63.5"/>
  <circle class="fil7" cx="5063.37" cy="3928.87" r="63.5"/>
  <circle class="fil7" cx="5063.37" cy="4090.38" r="63.5"/>
  <circle class="fil7" cx="5063.37" cy="4251.89" r="63.5"/>
  <circle class="fil7" cx="5063.37" cy="4413.4" r="63.5"/>
  <circle class="fil7" cx="5059.23" cy="4762.88" r="63.5"/>
  <circle class="fil7" cx="5059.23" cy="5100.22" r="63.5"/>
  <circle class="fil7" cx="5061.43" cy="5253.45" r="63.5"/>
  <circle class="fil7" cx="5059.23" cy="5415.51" r="63.5"/>
  <circle class="fil7" cx="5057.03" cy="5577.57" r="63.5"/>
  <circle class="fil7" cx="5057.03" cy="5737.42" r="63.5"/>
  <circle class="fil7" cx="5057.03" cy="5897.27" r="63.5"/>
  <circle class="fil7" cx="5057.03" cy="6057.12" r="63.5"/>
  <circle class="fil7" cx="5057.03" cy="6216.97" r="63.5"/>
  <circle class="fil7" cx="5225.43" cy="1990.75" r="63.5"/>
  <circle class="fil7" cx="5225.43" cy="2959.81" r="63.5"/>
  <circle class="fil7" cx="5225.43" cy="3282.83" r="63.5"/>
  <circle class="fil7" cx="5225.43" cy="4251.89" r="63.5"/>
  <circle class="fil7" cx="5225.43" cy="4413.4" r="63.5"/>
  <circle class="fil7" cx="5221.29" cy="4762.88" r="63.5"/>
  <circle class="fil7" cx="5221.29" cy="5100.22" r="63.5"/>
  <circle class="fil7" cx="5219.09" cy="5737.42" r="63.5"/>
  <circle class="fil7" cx="5219.09" cy="6057.12" r="63.5"/>
  <circle class="fil7" cx="5387.49" cy="537.16" r="63.5"/>
  <circle class="fil7" cx="5387.49" cy="698.67" r="63.5"/>
  <circle class="fil7" cx="5387.49" cy="860.18" r="63.5"/>
  <circle class="fil7" cx="5387.49" cy="1021.69" r="63.5"/>
  <circle class="fil7" cx="5387.49" cy="1183.2" r="63.5"/>
  <circle class="fil7" cx="5387.49" cy="1344.71" r="63.5"/>
  <circle class="fil7" cx="5387.49" cy="1506.22" r="63.5"/>
  <circle class="fil7" cx="5387.49" cy="1829.24" r="63.5"/>
  <circle class="fil7" cx="5387.49" cy="2313.77" r="63.5"/>
  <circle class="fil7" cx="5387.49" cy="2475.28" r="63.5"/>
  <circle class="fil7" cx="5387.49" cy="2636.79" r="63.5"/>
  <circle class="fil7" cx="5387.49" cy="3282.83" r="63.5"/>
  <circle class="fil7" cx="5387.49" cy="3605.85" r="63.5"/>
  <circle class="fil7" cx="5387.49" cy="4251.89" r="63.5"/>
  <circle class="fil7" cx="5383.35" cy="4931.55" r="63.5"/>
  <circle class="fil7" cx="5383.35" cy="5100.22" r="63.5"/>
  <circle class="fil7" cx="5383.35" cy="5415.51" r="63.5"/>
  <circle class="fil7" cx="5381.15" cy="5737.42" r="63.5"/>
  <circle class="fil7" cx="5381.15" cy="6057.12" r="63.5"/>
  <circle class="fil7" cx="5549.55" cy="537.16" r="63.5"/>
  <circle class="fil7" cx="5549.55" cy="1506.22" r="63.5"/>
  <circle class="fil7" cx="5549.55" cy="1829.24" r="63.5"/>
  <circle class="fil7" cx="5549.55" cy="1990.75" r="63.5"/>
  <circle class="fil7" cx="5549.55" cy="2313.77" r="63.5"/>
  <circle class="fil7" cx="5549.55" cy="2475.28" r="63.5"/>
  <circle class="fil7" cx="5549.55" cy="2959.81" r="63.5"/>
  <circle class="fil7" cx="5549.55" cy="3444.34" r="63.5"/>
  <circle class="fil7" cx="5549.55" cy="3605.85" r="63.5"/>
  <circle class="fil7" cx="5549.55" cy="3767.36" r="63.5"/>
  <circle class="fil7" cx="5549.55" cy="3928.87" r="63.5"/>
  <circle class="fil7" cx="5549.55" cy="4090.38" r="63.5"/>
  <circle class="fil7" cx="5549.55" cy="4251.89" r="63.5"/>
  <circle class="fil7" cx="5549.55" cy="4413.4" r="63.5"/>
  <circle class="fil7" cx="5545.41" cy="4594.21" r="63.5"/>
  <circle class="fil7" cx="5545.41" cy="4762.88" r="63.5"/>
  <circle class="fil7" cx="5545.41" cy="4931.55" r="63.5"/>
  <circle class="fil7" cx="5545.41" cy="5100.22" r="63.5"/>
  <circle class="fil7" cx="5543.21" cy="5737.42" r="63.5"/>
  <circle class="fil7" cx="5543.21" cy="6057.12" r="63.5"/>
  <circle class="fil7" cx="5543.21" cy="6216.97" r="63.5"/>
  <circle class="fil7" cx="5711.61" cy="537.16" r="63.5"/>
  <circle class="fil7" cx="5711.61" cy="1506.22" r="63.5"/>
  <circle class="fil7" cx="5711.61" cy="1990.75" r="63.5"/>
  <circle class="fil7" cx="5711.61" cy="2798.3" r="63.5"/>
  <circle class="fil7" cx="5711.61" cy="3282.83" r="63.5"/>
  <circle class="fil7" cx="5711.61" cy="3767.36" r="63.5"/>
  <circle class="fil7" cx="5711.61" cy="4090.38" r="63.5"/>
  <circle class="fil7" cx="5707.47" cy="4594.21" r="63.5"/>
  <circle class="fil7" cx="5707.47" cy="5100.22" r="63.5"/>
  <circle class="fil7" cx="5709.67" cy="5253.45" r="63.5"/>
  <circle class="fil7" cx="5707.47" cy="5415.51" r="63.5"/>
  <circle class="fil7" cx="5705.27" cy="5577.57" r="63.5"/>
  <circle class="fil7" cx="5705.27" cy="5737.42" r="63.5"/>
  <circle class="fil7" cx="5705.27" cy="5897.27" r="63.5"/>
  <circle class="fil7" cx="5705.27" cy="6216.97" r="63.5"/>
  <circle class="fil7" cx="5705.27" cy="6376.82" r="63.5"/>
  <circle class="fil7" cx="5873.67" cy="537.16" r="63.5"/>
  <circle class="fil7" cx="5873.67" cy="1506.22" r="63.5"/>
  <circle class="fil7" cx="5873.67" cy="1990.75" r="63.5"/>
  <circle class="fil7" cx="5873.67" cy="2152.26" r="63.5"/>
  <circle class="fil7" cx="5873.67" cy="2798.3" r="63.5"/>
  <circle class="fil7" cx="5873.67" cy="2959.81" r="63.5"/>
  <circle class="fil7" cx="5873.67" cy="3605.85" r="63.5"/>
  <circle class="fil7" cx="5873.67" cy="3767.36" r="63.5"/>
  <circle class="fil7" cx="5873.67" cy="3928.87" r="63.5"/>
  <circle class="fil7" cx="5873.67" cy="4090.38" r="63.5"/>
  <circle class="fil7" cx="5873.67" cy="4251.89" r="63.5"/>
  <circle class="fil7" cx="5869.53" cy="4594.21" r="63.5"/>
  <circle class="fil7" cx="5869.53" cy="4931.55" r="63.5"/>
  <circle class="fil7" cx="5871.73" cy="5253.45" r="63.5"/>
  <circle class="fil7" cx="5867.33" cy="5737.42" r="63.5"/>
  <circle class="fil7" cx="5867.33" cy="5897.27" r="63.5"/>
  <circle class="fil7" cx="5867.33" cy="6057.12" r="63.5"/>
  <circle class="fil7" cx="6035.73" cy="537.16" r="63.5"/>
  <circle class="fil7" cx="6035.73" cy="1506.22" r="63.5"/>
  <circle class="fil7" cx="6035.73" cy="2313.77" r="63.5"/>
  <circle class="fil7" cx="6035.73" cy="3121.32" r="63.5"/>
  <circle class="fil7" cx="6035.73" cy="4413.4" r="63.5"/>
  <circle class="fil7" cx="6029.39" cy="5577.57" r="63.5"/>
  <circle class="fil7" cx="6029.39" cy="5737.42" r="63.5"/>
  <circle class="fil7" cx="6029.39" cy="6216.97" r="63.5"/>
  <circle class="fil7" cx="6197.79" cy="537.16" r="63.5"/>
  <circle class="fil7" cx="6197.79" cy="1506.22" r="63.5"/>
  <circle class="fil7" cx="6197.79" cy="1829.24" r="63.5"/>
  <circle class="fil7" cx="6197.79" cy="2313.77" r="63.5"/>
  <circle class="fil7" cx="6197.79" cy="2475.28" r="63.5"/>
  <circle class="fil7" cx="6197.79" cy="2798.3" r="63.5"/>
  <circle class="fil7" cx="6197.79" cy="3605.85" r="63.5"/>
  <circle class="fil7" cx="6197.79" cy="4413.4" r="63.5"/>
  <circle class="fil7" cx="6193.65" cy="4762.88" r="63.5"/>
  <circle class="fil7" cx="6193.65" cy="4931.55" r="63.5"/>
  <circle class="fil7" cx="6193.65" cy="5100.22" r="63.5"/>
  <circle class="fil7" cx="6191.45" cy="5577.57" r="63.5"/>
  <circle class="fil7" cx="6191.45" cy="5737.42" r="63.5"/>
  <circle class="fil7" cx="6191.45" cy="5897.27" r="63.5"/>
  <circle class="fil7" cx="6191.45" cy="6057.12" r="63.5"/>
  <circle class="fil7" cx="6191.45" cy="6376.82" r="63.5"/>
  <circle class="fil7" cx="6359.85" cy="537.16" r="63.5"/>
  <circle class="fil7" cx="6359.85" cy="698.67" r="63.5"/>
  <circle class="fil7" cx="6359.85" cy="860.18" r="63.5"/>
  <circle class="fil7" cx="6359.85" cy="1021.69" r="63.5"/>
  <circle class="fil7" cx="6359.85" cy="1183.2" r="63.5"/>
  <circle class="fil7" cx="6359.85" cy="1344.71" r="63.5"/>
  <circle class="fil7" cx="6359.85" cy="1506.22" r="63.5"/>
  <circle class="fil7" cx="6359.85" cy="1990.75" r="63.5"/>
  <circle class="fil7" cx="6359.85" cy="2152.26" r="63.5"/>
  <circle class="fil7" cx="6359.85" cy="2313.77" r="63.5"/>
  <circle class="fil7" cx="6359.85" cy="2475.28" r="63.5"/>
  <circle class="fil7" cx="6359.85" cy="2636.79" r="63.5"/>
  <circle class="fil7" cx="6359.85" cy="2959.81" r="63.5"/>
  <circle class="fil7" cx="6359.85" cy="3121.32" r="63.5"/>
  <circle class="fil7" cx="6359.85" cy="3282.83" r="63.5"/>
  <circle class="fil7" cx="6359.85" cy="3605.85" r="63.5"/>
  <circle class="fil7" cx="6359.85" cy="3928.87" r="63.5"/>
  <circle class="fil7" cx="6359.85" cy="4413.4" r="63.5"/>
  <circle class="fil7" cx="6355.71" cy="4594.21" r="63.5"/>
  <circle class="fil7" cx="6355.71" cy="4762.88" r="63.5"/>
  <circle class="fil7" cx="6355.71" cy="5100.22" r="63.5"/>
  <circle class="fil7" cx="6353.51" cy="5577.57" r="63.5"/>
  <circle class="fil7" cx="6353.51" cy="5737.42" r="63.5"/>
  <circle class="fil7" cx="6353.51" cy="5897.27" r="63.5"/>
  <circle class="fil7" cx="6353.51" cy="6216.97" r="63.5"/>
  <circle class="fil7" cx="6353.51" cy="6376.82" r="63.5"/>
  <rect class="fil8" x="758.99" y="779.58" width="481.54" height="485.52" rx="127" ry="127"/>
  <rect class="fil8" x="5627.4" y="779.58" width="481.54" height="485.52" rx="127" ry="127"/>
  <rect class="fil8" x="761.72" y="5656.52" width="481.54" height="485.52" rx="127" ry="127"/>
 </g>
</svg>
